{
  "title": "Guardians of the Galaxy (2014) Dual Audio DVDRip AVI",
  "uid": 11426060,
  "size": 2202402816,
  "categoryP": "video",
  "categoryS": "movies",
  "magnet": "?xt=urn:btih:3a71b1db90752d319ed3e1ddb2283a5679c4e0b8&amp;dn=Guardians+of+the+Galaxy+%282014%29+Dual+Audio+DVDRip+AVI&amp;tr=udp%3A%2F%2Ftracker.openbittorrent.com%3A80&amp;tr=udp%3A%2F%2Fopen.demonii.com%3A1337&amp;tr=udp%3A%2F%2Ftracker.coppersurfer.tk%3A6969&amp;tr=udp%3A%2F%2Fexodus.desync.com%3A6969",
  "seeders": 392,
  "leechers": 1,
  "uploader": "darkj6",
  "files": -1,
  "time": 1415666235,
  "description": " ______   _______  ______    ___   _      ___  --------|\n|      | |   _   ||    _ |  |   | | |    |   ||   |----|    \n|  _    ||  |_|  ||   | ||  |   |_| |    |   ||   |___ \n| | |   ||       ||   |_||_ |      _|    |   ||    _  |\n| |_|   ||       ||    __  ||     |_  ___|   ||   | | |\n|       ||   _   ||   |  | ||    _  ||       ||   |_| |\n|______| |__| |__||___|  |_||___| |_||_______||_______|\n                   &lt;a href=&quot;\nhttps://thepiratebay.se/user/darkj6/&quot; rel=&quot;nofollow&quot; target=&quot;_NEW&quot;&gt;\nhttps://thepiratebay.se/user/darkj6/&lt;/a&gt;\n\nJoin ThePirateBay Forum:\n                                            &lt;a href=&quot;\nhttps://forum.suprbay.org/member.php?action=register&amp;referrer=908&quot; rel=&quot;nofollow&quot; target=&quot;_NEW&quot;&gt;\nhttps://forum.suprbay.org/member.php?action=register&amp;referrer=908&lt;/a&gt;\n\n &lt;a href=&quot;\nhttp://www.imdb.com/title/tt2015381/&quot; rel=&quot;nofollow&quot; target=&quot;_NEW&quot;&gt;\nhttp://www.imdb.com/title/tt2015381/&lt;/a&gt;\n\nQuality : DVDRip \n\nVideo : MPEG4, XviD, 720x304 (2.35: 1), 23.976 fps, 1555 Kbps (0.296 bit / pixel) \n\nAudio : Russian: AC3, 384 kb / s (2 ch) \n\nEnglish: AC3, 384 kb / s (6 ch)\n\nSize : 2,100 MB \n &lt;a href=&quot;\nhttp://rupix.org/viewer.php?file=90953613872201302079.jpg&quot; rel=&quot;nofollow&quot; target=&quot;_NEW&quot;&gt;\nhttp://rupix.org/viewer.php?file=90953613872201302079.jpg&lt;/a&gt;\n &lt;a href=&quot;\nhttp://rupix.org/viewer.php?file=54630693189590679187.jpg&quot; rel=&quot;nofollow&quot; target=&quot;_NEW&quot;&gt;\nhttp://rupix.org/viewer.php?file=54630693189590679187.jpg&lt;/a&gt;\n &lt;a href=&quot;\nhttp://rupix.org/viewer.php?file=53361747407060411491.jpg&quot; rel=&quot;nofollow&quot; target=&quot;_NEW&quot;&gt;\nhttp://rupix.org/viewer.php?file=53361747407060411491.jpg&lt;/a&gt;\n &lt;a href=&quot;\nhttp://rupix.org/viewer.php?file=31524869163461199743.jpg&quot; rel=&quot;nofollow&quot; target=&quot;_NEW&quot;&gt;\nhttp://rupix.org/viewer.php?file=31524869163461199743.jpg&lt;/a&gt;\n\nGeneral\nComplete name : !Strag1.Galakt1ki.2014.D.DVDRip.2100Mb.avi\nFormat : AVI\nFormat/Info : Audio Video Interleave\nFile size : 2.05 GiB\nDuration : 2h 0mn\nOverall bit rate : 2 430 Kbps\nWriting application : VirtualDubMod 1.5.10.2 (build 2540/release)\nWriting library : VirtualDubMod build 2540/release\n\nVideo\nID : 0\nFormat : MPEG-4 Visual\nFormat profile : Advanced Simple@L5\nFormat settings, BVOP : 2\nFormat settings, QPel : No\nFormat settings, GMC : No warppoints\nFormat settings, Matrix : Default (MPEG)\nCodec ID : XVID\nCodec ID/Hint : XviD\nDuration : 2h 0mn\nBit rate : 1 555 Kbps\nWidth : 720 pixels\nHeight : 304 pixels\nDisplay aspect ratio : 2.35:1\nFrame rate : 23.976 fps\nColor space : YUV\nChroma subsampling : 4:2:0\nBit depth : 8 bits\nScan type : Progressive\nCompression mode : Lossy\nBits/(Pixel*Frame) : 0.296\nStream size : 1.31 GiB (64%)\nWriting library : XviD 1.2.1 (UTC 2008-12-04)\n\nAudio #1\nID : 1\nFormat : AC-3\nFormat/Info : Audio Coding 3\nMode extension : CM (complete main)\nFormat settings, Endianness : Big\nCodec ID : 2000\nDuration : 2h 0mn\nBit rate mode : Constant\nBit rate : 384 Kbps\nChannel(s) : 2 channels\nChannel positions : Front: L R\nSampling rate : 48.0 KHz\nBit depth : 16 bits\nCompression mode : Lossy\nStream size : 332 MiB (16%)\nAlignment : Split accross interleaves\n\nAudio #2\nID : 2\nFormat : AC-3\nFormat/Info : Audio Coding 3\nMode extension : CM (complete main)\nFormat settings, Endianness : Big\nCodec ID : 2000\nDuration : 2h 0mn\nBit rate mode : Constant\nBit rate : 384 Kbps\nChannel(s) : 6 channels\nChannel positions : Front: L C R, Side: L R, LFE\nSampling rate : 48.0 KHz\nBit depth : 16 bits\nCompression mode : Lossy\nStream size : 332 MiB (16%)\nAlignment : Split accross interleaves",
  "parsed": {
    "xt": "urn:btih:3a71b1db90752d319ed3e1ddb2283a5679c4e0b8",
    "dn": "Guardians of the Galaxy (2014) Dual Audio DVDRip AVI",
    "tr": [
      "udp://exodus.desync.com:6969",
      "udp://open.demonii.com:1337",
      "udp://tracker.coppersurfer.tk:6969",
      "udp://tracker.openbittorrent.com:80"
    ],
    "infoHash": "3a71b1db90752d319ed3e1ddb2283a5679c4e0b8",
    "infoHashBuffer": {
      "type": "Buffer",
      "data": [
        58,
        113,
        177,
        219,
        144,
        117,
        45,
        49,
        158,
        211,
        225,
        221,
        178,
        40,
        58,
        86,
        121,
        196,
        224,
        184
      ]
    },
    "name": "Guardians of the Galaxy (2014) Dual Audio DVDRip AVI",
    "announce": [
      "udp://exodus.desync.com:6969",
      "udp://open.demonii.com:1337",
      "udp://tracker.coppersurfer.tk:6969",
      "udp://tracker.openbittorrent.com:80"
    ],
    "urlList": []
  },
  "previous": 393,
  "peers": 158,
  "last_updated": "2016-12-24T22:31:28.838Z"
}